<?xml version="1.0" encoding="utf-8"?>
<!-- Generator: Adobe Illustrator 27.5.0, SVG Export Plug-In . SVG Version: 6.00 Build 0)  -->
<svg version="1.1" id="Layer_1" xmlns="http://www.w3.org/2000/svg" xmlns:xlink="http://www.w3.org/1999/xlink" x="0px" y="0px"
	 viewBox="0 0 689.5 254.5" style="enable-background:new 0 0 689.5 254.5;" xml:space="preserve">
<g>
	<path style="fill:#A16526;" d="M660.926,153.044c-7.201-3.301-14.793-5.794-22.525-7.473c-3.426-0.744-8.088,0.103-11.758-0.656
		c9.775-3.304,23.731-1.948,29.372-10.617c0.202-0.314,0.732-1.117,0.321-1.497c-0.938-0.862-1.941-1.52-2.992-2.05
		c5.611-0.906,11.119-2.091,16.214-3.956c6.481-2.376,10.353-9.146,3.883-13.843c-4.788-3.474-11.396-4.837-17.006-6.28
		c-9.264-2.376-18.537-4.882-27.889-6.885c-8.16-1.749-16.616-2.657-24.878-3.831c-2.678-0.38-6.345-0.239-10.002-0.264
		c6.367-2.128,12.59-4.712,18.767-7.331c5.649-2.398,11.736-5.418,15.153-10.701c8.825-13.648-33.227-23.039-39.66-24.307
		c-28.48-5.616-58.144-6.852-87.091-7.193c-6.708-0.079-13.423,0.029-20.134,0.283c4.714-2.593,12.317-6.855,13.325-12.655
		c2.086-12.026-19.283-13.37-27.097-15.122C410.971,6.123,352.977,3.147,295.851,6.729c-24.066,1.51-48.605,2.082-72.21,7.415
		c-5.897,1.333-17.334,4.311-18.892,11.553c-0.495,2.298,0.442,4.45,2.293,6.445c-8.195,0.578-16.359,1.68-24.503,2.668
		c-23.519,2.852-46.592,7.463-68.265,17.314c-9.852,4.479-26.547,14.954-16.322,26.928c5.313,6.216,17.312,9.074,24.627,11.478
		c4.989,1.641,9.927,3.337,15.105,4.199c2.774,0.461,6.116,0.908,8.879,2.196c-8.335,1.742-16.613,2.981-23.964,8.158
		c-4.276,3.013-4.006,5.094-2.03,6.873c-6.159,0.329-13.366-0.791-18.515-0.3c-10.795,1.024-21.257,3.196-31.669,6.143
		c-17.934,5.073-35.467,12.756-51.132,22.844c-3.144,2.026-20.686,13.129-11.319,17.991c5.026,2.609,10.649,2.2,16.154,2.635
		c7.74,0.612,18.657-0.616,27.131,1.47c-6.25,1.855-12.091,4.513-17.934,8.309c-2.782,1.807-10.026,6.229-7.709,10.501
		c0.961,1.772,6.493,1.684,8.15,1.911c3.544,0.49,14.894-1.586,5.047,2.092c-4.398,1.644-10.007,3.543-11.581,8.392
		c-0.095,0.327-0.049,0.628,0.139,0.906c5.526,3.932,17.592,0.655,24.277,1.076c6.364,0.401,12.579,1.772,18.946,1.989
		c4.409,0.148,10.639,0.445,15.481,2.079c-11.123,5.132-25.399,10.235-29.607,21.899c-2.394,6.631,48.377,10.818,52.174,11.308
		c24.708,3.167,51.396,0.534,76.005-2.561c12.756-1.603,25.46-3.63,38.213-5.288c3.291-0.427,6.875-0.568,10.446-0.871
		c-3.261,1.977-6.23,4.34-8.458,7.736c-0.507,0.77-1.154,1.921-0.107,2.521c7.966,4.58,21.021-3.701,30.742-5.902
		c-6.972,5.207-18.989,12.168-5.477,16.098c22.473,6.54,48.458,4.923,71.567,4.33c25.486-0.654,50.939-1.375,76.314-4.07
		c8.136-0.864,32.42-0.169,33.944-11.953c0.476-0.023,0.952-0.053,1.427-0.071c11.692-0.446,24.313,0.693,36.431,1.983
		c-6.676,2.074-13.103,4.941-16.386,9.86c-0.404,0.605-1.436,2.429-0.12,2.791c11.904,3.269,26.269,0.896,38.514,0.788
		c16.724-0.146,33.471-1.182,50.121-2.718c25.708-2.377,50.275-8.357,74.784-16.202c10.974-3.512,31.355-8.985,35.718-21.455
		c2.59-7.396-4.757-11.13-10.794-12.873c-6.691-1.93-13.441-3.955-20.143-5.959c-4.425-1.323-9.592-1.415-14.134-2.732
		c3.663-0.486,8.313,0.027,10.962-0.32c5.147-0.676,9.927-0.942,14.716-3.053c1.408-0.62,4.25-2.789,3.352-4.63
		c-0.621-1.273-1.713-2.171-3.065-2.818c10.967-1.909,22.012-3.069,33.195-2.018c6.189,0.579,13.887,3.675,17.393-3.479
		C687.34,163.031,664.697,154.773,660.926,153.044z"/>
	<path style="opacity:0.5;fill:#A16526;" d="M606.406,150.33c8.708-3.152,18.517-4.922,26.237-10.3
		c9.804-6.83-2.487-12.827-9.009-14.726c-9.478-2.762-19.367-3.911-29.158-4.939c-6.222-0.654-12.946-0.707-18.996-2.442
		c-0.961-0.275-1.053-1.808,0-2.032c9.193-1.961,20.251-1.194,27.961-7.261c-11.045-6.169-25.338-1.741-37.097-6.17
		c-1-0.375-1.003-1.658,0-2.032c9.875-3.683,19.884-7.18,29.191-12.188c5.205-2.801,23.506-13.139,15.731-21.421
		c-5.764-6.14-18.783-2.285-25.604-0.355c-7.711,2.182-15.938,4.801-22.725,9.183c-0.945,0.612-1.887-0.553-1.441-1.442
		c4.238-8.458-11.951-11.25-17.174-11.832c-4.433-0.494-17.938-2.306-20.366,3.056c-0.253,0.56-0.963,0.598-1.44,0.378
		c-7.44-3.408-18.147-2.205-26.002-1.35c-7.655,0.834-19.371,1.833-24.73,8.213c-0.341,0.406-1.153,0.423-1.491,0
		c-2.024-2.542-2.342-4.647-2.712-7.814c-0.532-4.555-4.112-7.315-7.874-9.279c-5.974-3.118-12.603-4.748-19.225-5.809
		c-14.653-2.345-29.626-3.945-44.397-5.3c-33.341-3.058-68.093-3.583-100.428,6.259c1.223,1.742,2.29,3.58,3.929,4.99
		c0.73,0.628,0.116,1.783-0.745,1.8c-17.241,0.351-33.19,9.477-50.605,7.731c-1.155-0.117-1.47-1.701-0.28-2.07
		c2.096-0.652,12.05-3.529,7.124-6.726c-3.002-1.947-6.543-3.03-9.98-3.933c-7.56-1.987-15.283-3.021-23.068-3.649
		c-12.794-1.033-27.807-1.666-41.584,1.038c-2.108,0.624-4.204,1.285-6.267,2.031c-8.446,3.053-22.949,8.771-24.373,19.255
		c-1.689,12.453,15.539,19.203,24.91,22.206c0.943,0.301,1.068,1.794,0,2.032c-5.334,1.189-26.356,5.326-20.456,13.915
		c0.371,0.538,0.013,1.422-0.63,1.548c-16.055,3.156-32.476,4.89-48.261,9.319c-8.321,2.334-16.891,5.11-24.369,9.516
		c-2.254,1.326-9.254,4.948-8.161,8.574c1.773,5.892,14.562,7.118,19.454,7.929c7.429,1.233,14.916,1.914,22.402,2.653
		c1.106,0.109,1.525,1.808,0.28,2.071c-2.888,0.61-5.791,1.394-8.545,2.465c-1.923,0.747-4.646,1.657-6.081,3.269
		c-2.096,2.352,2.034,3.49,3.134,3.819c5.23,1.566,12.063,1.566,16.663,4.685c0.782,0.528,0.625,1.611-0.252,1.926
		c-9.002,3.242-18.932,3.237-28.307,4.64c-9.234,1.38-19.763,3.432-25.708,11.229c7.707,1.683,15.738,0.221,23.451-0.794
		c8.163-1.074,15.412-1.219,23.479,0.638c17.217,3.959,33.609,11.393,48.021,21.601c6.524,4.617,12.919,9.701,20.124,13.238
		c7.043,3.456,14.383,5.199,22.179,5.748c6.941,0.488,14.517,0.731,21.219-1.434c1.678-0.543,3.419-1.134,4.881-2.154
		c1.373-0.962-2.392-3.78-3.063-4.338c-3.821-3.166-7.934-5.369-12.655-6.907c-0.902-0.294-1.105-1.86,0-2.032
		c23.159-3.644,46.737-3.13,70.07-1.759c22.333,1.314,44.423,3.206,66.471,7.119c33.166,5.887,67.094,14.266,100.986,14.939
		c24.201-2.714,47.959-9.867,69.055-21.392c-11.261-5.581-23.941-1.583-35.987-3.904c-0.871-0.167-1.061-1.544-0.252-1.927
		c28.478-13.467,59.728-19.708,90.577-25.049c21.684-3.752,43.653-8.024,65.714-9.854c-10.04-6.288-23.701-6.501-33.996-12.476
		C605.317,151.77,605.576,150.63,606.406,150.33z"/>
	<g>
		<g>
			<path style="fill:#714021;" d="M572.375,127.532c-7.2-0.969-30.642-3.587-27.596-15.918c1.587-6.426,7.72-11.217,12.662-15.095
				c5.289-4.152,11.049-7.917,17.003-11.047c8.615-4.528,17.563-8.077,26.6-11.392c-5.958,1.149-11.79,2.996-17.75,4.552
				c-2.079,0.545-4.188,1.019-6.298,1.486c-4.151,1.955-8.19,3.955-11.97,5.955c-6.623,3.501-12.815,7.226-18.011,12.136
				c-3.211-0.985-6.42-1.968-9.645-2.982c-13.814-4.344-27.571-6.914-41.647-8.492c-21.551,0.683-43.105,2.862-64.697,2.412
				c-17.436-0.362-33.473-3.182-50.205-7.983c-7.87-2.259-15.374-3.752-23.499-4.699c-2.201-0.256-4.398-0.545-6.547-0.975
				c-25.059-2.627-50.194-4.088-75.205,0.182c-18.31,3.126-35.914,8.522-54.611,8.764c-2.336,0.029-15.04,0.22-25.102-1.425
				c-2.59-2.532-5.376-4.778-7.755-6.627c4.582,6.388,9.018,13.608,8.666,20.93c-0.325,6.783-4.64,10.296-10.233,13.467
				c-7.594,4.305-15.787,7.439-24.315,9.325c-2.324,0.514-4.656,0.949-6.996,1.339c-2.686,0.897-5.33,1.676-7.842,2.331
				c-7.348,1.913-14.801,3.245-22.077,5.11c-5.826-1.633-11.942-2.416-17.746-2.523c16.862,8.003,37.586,15.473,36.939,35.637
				c1.977,4.467,3.113,9.152,2.778,13.563c-0.202-0.089-0.398-0.187-0.604-0.275c-13.148-5.559-26.436-5.903-40.511-5.332
				c-7.984,0.322-16.048,0.69-23.994,1.552c-3.169,0.344-6.172,0.916-9.154,1.365c5.001,0.467,10.007,0.798,15.005,1.267
				c6.299,0.592,12.488,1.645,18.836,1.841c8.896,0.271,17.68,0.419,26.388,2.475c18.52,4.369,34.618,13.408,51.915,20.928
				c8.838,3.844,17.835,7.348,27.29,9.313c0.379,0.078,0.757,0.154,1.139,0.23c-8.438-4.071-16.973-7.956-25.463-11.917
				c5.036-0.417,10.162-1.357,14.255-1.714c13.577-1.179,26.66-1.576,40.31-1.346c27.594,0.467,55.829,1.263,83.227,4.55
				c26.755,3.209,52.188,12.496,78.954,15.49c8.285,0.928,16.677,1.374,25.106,1.471c8.98-0.953,17.895-2.207,26.619-3.625
				c8.085-1.314,16.199-2.788,24.379-3.396c-16.446,0.368-32.809,0.872-49.179-0.093c6.847-3.731,13.836-7.152,20.946-10.364
				c18.081-8.173,35.547-16,54.57-21.853c16.8-5.169,34.136-9.355,51.624-11.493c18.2-3.752,36.887-5.876,55.248-8.946
				c-10.807-0.824-21.783-1.091-32.774-0.794c8.727-6.113,18.297-10.631,28.324-14.241c2.629,1.317,4.59,2.124,7.972,2.42
				c0.166,0.014,0.38-0.041,0.613-0.139c-6.99-4.085-14.139-7.942-21.755-10.58C588.588,129.597,580.657,128.645,572.375,127.532z
				 M578.585,154.98c-21.003,0.757-42.003,3.601-61.886,8.684c-18.187,4.65-35.538,11.883-52.031,20.772
				c-3.304,1.781-33.719,18.211-39.122,23.464c-4.753-0.396-9.504-0.928-14.264-1.646c-25.017-3.777-47.921-15.147-73.067-18.347
				c-27.938-3.554-56.321-3.712-84.456-3.554c-13.097,0.073-26.154,0.509-39.073,2.748c-7.108,1.233-14.145,2.795-21.233,4.137
				c-3.616,0.686-7.685,2.1-11.584,2.789c-10.509-5.204-20.217-11.71-30.804-16.754c7.935-9.33,3.325-25.392-3.038-34.096
				c-2.249-3.081-5.122-5.653-8.36-7.825c3.143-0.662,6.208-1.736,9.206-3.068c6.517-2.139,12.767-4.666,18.403-7.659
				c3.479-1.849,7.015-4.225,10.318-7c9.428-3.28,21.794-6.487,25.652-15.476c1.322-3.078,1.053-6.16-0.124-9.128
				c16.487,1.092,36.047-1.154,40.756-2.399c21.055-5.571,42.072-11.504,63.985-12.117c18.773-0.523,37.499,1.481,56.251,2.389
				c10.301,4.725,21.797,6.36,32.848,9.528c20.997,6.019,43.329,5.36,64.942,5.108c24.42-0.284,48.058-3.673,71.922,3.451
				c3.172,0.948,6.37,2.007,9.576,3.105c-0.951,1.134-1.854,2.336-2.703,3.596c-5.195,3.979-9.415,9.101-7.604,15.032
				c2.909,9.545,21.491,12.215,29.089,13.073c9.484,1.074,18.992,1.2,28.521,1.712c4.165,0.22,8.715,0.976,12.838,2.389
				C594.453,142.408,586.066,147.989,578.585,154.98z"/>
			<path style="fill:#431F0D;" d="M572.375,127.532c-7.2-0.969-30.642-3.587-27.596-15.918c1.587-6.426,7.72-11.217,12.662-15.095
				c5.289-4.152,11.049-7.917,17.003-11.047c8.615-4.528,17.563-8.077,26.6-11.392c-5.958,1.149-11.79,2.996-17.75,4.552
				c-2.079,0.545-4.188,1.019-6.298,1.486c-4.151,1.955-8.19,3.955-11.97,5.955c-6.623,3.501-12.815,7.226-18.011,12.136
				c-3.211-0.985-6.42-1.968-9.645-2.982c-13.814-4.344-27.571-6.914-41.647-8.492c-21.551,0.683-43.105,2.862-64.697,2.412
				c-17.436-0.362-33.473-3.182-50.205-7.983c-7.87-2.259-15.374-3.752-23.499-4.699c-2.201-0.256-4.398-0.545-6.547-0.975
				c-25.059-2.627-50.194-4.088-75.205,0.182c-18.31,3.126-35.914,8.522-54.611,8.764c-2.336,0.029-15.04,0.22-25.102-1.425
				c-2.59-2.532-5.376-4.778-7.755-6.627c4.582,6.388,9.018,13.608,8.666,20.93c-0.325,6.783-4.64,10.296-10.233,13.467
				c-7.594,4.305-15.787,7.439-24.315,9.325c-2.324,0.514-4.656,0.949-6.996,1.339c-2.686,0.897-5.33,1.676-7.842,2.331
				c-7.348,1.913-14.801,3.245-22.077,5.11c-5.826-1.633-11.942-2.416-17.746-2.523c16.862,8.003,37.586,15.473,36.939,35.637
				c1.977,4.467,3.113,9.152,2.778,13.563c-0.202-0.089-0.398-0.187-0.604-0.275c-13.148-5.559-26.436-5.903-40.511-5.332
				c-7.984,0.322-16.048,0.69-23.994,1.552c-3.169,0.344-6.172,0.916-9.154,1.365c5.001,0.467,10.007,0.798,15.005,1.267
				c6.299,0.592,12.488,1.645,18.836,1.841c8.896,0.271,17.68,0.419,26.388,2.475c18.52,4.369,34.618,13.408,51.915,20.928
				c8.838,3.844,17.835,7.348,27.29,9.313c0.379,0.078,0.757,0.154,1.139,0.23c-8.438-4.071-16.973-7.956-25.463-11.917
				c5.036-0.417,10.162-1.357,14.255-1.714c13.577-1.179,26.66-1.576,40.31-1.346c27.594,0.467,55.829,1.263,83.227,4.55
				c26.755,3.209,52.188,12.496,78.954,15.49c8.285,0.928,16.677,1.374,25.106,1.471c8.98-0.953,17.895-2.207,26.619-3.625
				c8.085-1.314,16.199-2.788,24.379-3.396c-16.446,0.368-32.809,0.872-49.179-0.093c6.847-3.731,13.836-7.152,20.946-10.364
				c18.081-8.173,35.547-16,54.57-21.853c16.8-5.169,34.136-9.355,51.624-11.493c18.2-3.752,36.887-5.876,55.248-8.946
				c-10.807-0.824-21.783-1.091-32.774-0.794c8.727-6.113,18.297-10.631,28.324-14.241c2.629,1.317,4.59,2.124,7.972,2.42
				c0.166,0.014,0.38-0.041,0.613-0.139c-6.99-4.085-14.139-7.942-21.755-10.58C588.588,129.597,580.657,128.645,572.375,127.532z"
				/>
			<path style="fill:#5A3418;" d="M578.585,154.98c-21.003,0.757-42.003,3.601-61.886,8.684
				c-18.187,4.65-35.538,11.883-52.031,20.772c-3.304,1.781-33.719,18.211-39.122,23.464c-4.753-0.396-9.504-0.928-14.264-1.646
				c-25.017-3.777-47.921-15.147-73.067-18.347c-27.938-3.554-56.321-3.712-84.456-3.554c-13.097,0.073-26.154,0.509-39.073,2.748
				c-7.108,1.233-14.145,2.795-21.233,4.137c-3.616,0.686-7.685,2.1-11.584,2.789c-10.509-5.204-20.217-11.71-30.804-16.754
				c7.935-9.33,3.325-25.392-3.038-34.096c-2.249-3.081-5.122-5.653-8.36-7.825c3.143-0.662,6.208-1.736,9.206-3.068
				c6.517-2.139,12.767-4.666,18.403-7.659c3.479-1.849,7.015-4.225,10.318-7c9.428-3.28,21.794-6.487,25.652-15.476
				c1.322-3.078,1.053-6.16-0.124-9.128c16.487,1.092,36.047-1.154,40.756-2.399c21.055-5.571,42.072-11.504,63.985-12.117
				c18.773-0.523,37.499,1.481,56.251,2.389c10.301,4.725,21.797,6.36,32.848,9.528c20.997,6.019,43.329,5.36,64.942,5.108
				c24.42-0.284,48.058-3.673,71.922,3.451c3.172,0.948,6.37,2.007,9.576,3.105c-0.951,1.134-1.854,2.336-2.703,3.596
				c-5.195,3.979-9.415,9.101-7.604,15.032c2.909,9.545,21.491,12.215,29.089,13.073c9.484,1.074,18.992,1.2,28.521,1.712
				c4.165,0.22,8.715,0.976,12.838,2.389C594.453,142.408,586.066,147.989,578.585,154.98z"/>
			<path style="opacity:0.6;fill:#5A3418;" d="M261.44,136.041c-0.902-16.56-1.152-33.133-1.21-49.711
				c-5.457,1.393-10.904,2.853-16.352,4.294c-2.306,0.609-8.177,1.457-15.497,2.037c3.117,17.581,3.771,35.553,6.323,53.255
				c1.87,12.997,4.932,25.794,7.697,38.636c3.779-0.116,7.565-0.176,11.357-0.198c4.294-0.024,8.599-0.034,12.902-0.031
				C264.74,168.246,262.323,152.193,261.44,136.041z"/>
			<path style="opacity:0.6;fill:#5A3418;" d="M315.482,182.854c0.9-13.42,0.677-26.497-0.447-39.897
				c-1.796-21.411-1.332-42.98-0.671-64.491c-1.488,0-2.974-0.01-4.466,0.019c-0.298,5.91-0.704,11.818-1.252,17.712
				c-1.132,12.226-3.121,24.365-4.088,36.603c-1.374,17.388-1.306,34.807-1.292,52.228c4.013,0.18,8.021,0.421,12.023,0.695
				C315.355,184.768,315.418,183.809,315.482,182.854z"/>
			<path style="opacity:0.6;fill:#5A3418;" d="M391.435,189.531c3.44-15.688,6.334-31.415,10.809-46.86
				c4.542-15.685,9.438-31.248,13.777-46.994c0.13-0.474,0.253-0.951,0.382-1.426c-6.565-0.795-13.063-2.001-19.439-3.828
				c-5.528-1.584-11.168-2.787-16.715-4.183c-0.41,2.36-0.798,4.709-1.118,7.042c-2.405,17.587-3.88,35.255-6.011,52.866
				c-1.95,16.144-4.104,32.332-5.415,48.551c6.897,2.07,13.757,4.286,20.675,6.285C389.521,197.188,390.59,193.376,391.435,189.531z
				"/>
			<path style="opacity:0.6;fill:#5A3418;" d="M500.225,133.131c4.306-12.64,8.528-25.31,12.587-38.03
				c-2.772-0.244-5.542-0.412-8.315-0.503c-4.551,16.155-11.162,31.798-14.193,48.387c-1.906,10.436-3.311,21.112-5.349,31.624
				c1.381-0.597,2.783-1.145,4.177-1.716C492.563,159.561,495.782,146.17,500.225,133.131z"/>
			<g>
				<path style="fill:#41240D;" d="M222.029,159.638c-3.083-13.848-6.421-27.609-10.159-41.294
					c-2.304-8.452-4.289-17.104-7.508-25.253c-0.414-0.023-0.831-0.039-1.24-0.066c1.177,2.968,1.446,6.051,0.124,9.128
					c-3.859,8.989-16.225,12.195-25.652,15.476c-3.304,2.774-6.839,5.15-10.318,7c-5.636,2.993-11.886,5.52-18.403,7.659
					c-2.999,1.332-6.063,2.406-9.206,3.068c3.239,2.171,6.111,4.744,8.36,7.825c6.363,8.704,10.973,24.766,3.038,34.096
					c10.587,5.044,20.295,11.55,30.804,16.754c3.899-0.689,7.968-2.104,11.584-2.789c7.088-1.342,14.125-2.904,21.233-4.137
					c4.319-0.749,8.655-1.282,13-1.681C225.798,176.828,223.943,168.225,222.029,159.638z"/>
				<path style="fill:#301A04;" d="M189.961,161.436c-5.308-13.636-11.219-27.083-16.23-40.841
					c-2.129,1.519-4.299,2.887-6.455,4.032c-5.636,2.993-11.886,5.52-18.403,7.659c-2.999,1.332-6.063,2.406-9.206,3.068
					c3.239,2.171,6.111,4.744,8.36,7.825c6.363,8.704,10.973,24.766,3.038,34.096c10.587,5.044,20.295,11.55,30.804,16.754
					c3.899-0.689,7.968-2.104,11.584-2.789c2.423-0.458,4.839-0.953,7.256-1.442C197.29,180.289,193.63,170.861,189.961,161.436z"/>
				<path style="fill:#41240D;" d="M281.875,158.422c-1.129-11.91-1.549-24.308-5.653-35.626
					c0.474,20.517-0.196,41.165,1.695,61.583c3.047,0.031,6.095,0.07,9.144,0.133C285.035,175.875,282.72,167.294,281.875,158.422z"
					/>
				<path style="fill:#41240D;" d="M289.51,125.303c3.643-14.732,2.665-30.238,2.356-45.458c-3.754,0.502-7.484,1.149-11.199,1.86
					C286.591,95.187,285.464,111.114,289.51,125.303z"/>
				<path style="fill:#41240D;" d="M478.875,94.999c-4.311,0.176-8.633,0.352-12.983,0.457c-3.004,11.976-3.88,24.567-4.118,36.942
					C465.698,119.125,471.686,106.755,478.875,94.999z"/>
				<path style="fill:#41240D;" d="M434.322,179.03c-1.404-18.923,2.465-38.293,4.256-57.275
					c-6.659,17.006-7.338,35.505-12.41,53.043c-2.935,10.145-8.479,19.333-11.158,29.543c-0.203,0.777-0.342,1.561-0.502,2.341
					c3.682,0.492,7.358,0.912,11.038,1.219c1.771-1.725,6.241-4.651,11.559-7.868C436.121,192.785,434.813,185.627,434.322,179.03z"
					/>
				<path style="fill:#41240D;" d="M590.706,135.501c-9.528-0.512-19.036-0.638-28.521-1.712
					c-7.598-0.858-26.18-3.529-29.089-13.073c-0.668-2.184-0.514-4.258,0.204-6.206c-0.396,0.372-0.794,0.744-1.176,1.145
					c-5.618,5.878-6.946,13.706-9.482,21.119c-2.006,5.855-4.788,11.222-8.205,16.382c-2.815,4.252-5.243,8.703-7.416,13.277
					c3.201-0.992,6.422-1.934,9.678-2.768c19.883-5.083,40.883-7.927,61.886-8.684c7.481-6.991,15.868-12.572,24.959-17.09
					C599.421,136.477,594.871,135.721,590.706,135.501z"/>
				<path style="fill:#301A04;" d="M590.706,135.501c-9.528-0.512-19.036-0.638-28.521-1.712
					c-6.714-0.759-21.984-2.939-27.461-10.02c0.615,3.183,2.009,6.074,5.426,8.339c6.169,4.091,13.209,6.285,20.011,9.049
					c0.698,0.284,1.027,0.952,0.676,1.659c-2.318,4.64-4.599,9.293-6.715,14.018c8.11-0.935,16.285-1.558,24.463-1.853
					c7.481-6.991,15.868-12.572,24.959-17.09C599.421,136.477,594.871,135.721,590.706,135.501z"/>
				<path style="fill:#41240D;" d="M336.762,164.181c2.655-19.63,8.355-38.548,11.832-58.062c1.482-8.31,2.214-17.235,3.74-25.909
					c-5.379-0.346-10.758-0.716-16.136-1.032C338.409,107.467,332.775,136.034,336.762,164.181z"/>
			</g>
			<path style="opacity:0.4;fill:#3B2009;" d="M590.706,135.501c-9.528-0.512-19.036-0.638-28.521-1.712
				c-7.598-0.858-26.18-3.529-29.089-13.073c-1.811-5.932,2.408-11.053,7.604-15.032c0.85-1.26,1.752-2.462,2.703-3.596
				c-3.206-1.098-6.404-2.157-9.576-3.105c-0.408-0.122-0.818-0.226-1.226-0.341c-9.087,16.381-18.635,32.513-27.061,49.252
				c-0.579,1.148-2.447,0.343-2.064-0.87c5.374-16.951,7.752-34.81,13.724-51.471c-3.274-0.408-6.55-0.679-9.828-0.845
				c-2.002,5.104-4.049,10.191-5.796,15.342c-5.429,16.019-9.746,32.638-16.914,47.999c-0.498,1.069-2.077,0.48-2.103-0.568
				c-0.14-6.076,0.215-12.125,0.705-18.167c-0.566,2.758-1.197,5.495-2.031,8.167c-4.395,14.063-20.611,21.423-30.602,31.109
				c-0.41,0.4-1.197,0.479-1.596,0c-3.879-4.652-9.885-6.888-13.647-11.505c-3.013-3.695-4.09-8.266-4.368-12.972
				c-0.138-2.321-0.115-4.631-0.028-6.938c-2.327,5.675-5.113,11.068-9.32,15.351c-4.484,4.571-10.342,8.585-15.867,11.783
				c-4.27,2.472-9.34,4.532-14.338,3c-7.774-2.384-16.406-7.51-17.764-16.195c-1.79-11.445-0.878-23.518,0.825-35.143
				c-2.373,5.653-4.668,11.348-7.441,16.824c-3.21,6.336-6.9,13.527-13.17,17.351c-0.494,0.301-1.279,0.142-1.542-0.404
				c-1.69-3.472-2.115-6.998-1.836-10.556c-3.173,7.693-6.23,15.436-9.081,23.262c-0.219,0.603-0.749,0.929-1.387,0.789
				c-5.771-1.261-11.21-2.966-17.191-2.217c-0.645,0.082-1.087-0.575-1.13-1.128c-0.493-6.439-1.305-12.828-2.437-19.175
				c-1.835,7.598-2.805,15.355-3.769,23.125c-0.163,1.286-1.724,1.51-2.217,0.299c-5.033-12.372-7.269-24.948-7.987-37.797
				c-0.712,2.938-1.691,5.764-3.536,8.277c-2.853,3.886-6.172,7.38-7.741,12.029c-0.171,0.501-0.56,0.8-1.088,0.83
				c-26.397,1.408-30.424-26.638-33.132-48.901c-2.966,19.291-3.266,39.171-1.852,58.492c0.038,0.504-0.371,0.952-0.829,1.088
				c-3.766,1.126-8.728,4.314-12.717,2.144c-3.995-2.172-5.652-6.992-9.59-9.028c-4.58-2.364-10.236-3.201-13.618-7.402
				c-1.02-1.267-1.954-2.586-2.869-3.922c0.495,6.876,0.32,13.795-1.042,20.807c-0.119,0.605-0.831,0.939-1.39,0.786
				c-7.789-2.118-16.387-3.967-23.186-8.522c-5.872-3.934-7.061-11.811-10.362-17.951c2.403,10.25,5.189,19.868,1.155,30.507
				c-2.359,6.219-7.544,9.363-12.886,12.399c3.687,2.1,7.392,4.16,11.209,6.051c3.899-0.689,7.968-2.104,11.584-2.789
				c7.088-1.342,14.125-2.904,21.233-4.137c12.919-2.239,25.976-2.675,39.073-2.748c28.136-0.158,56.518,0,84.456,3.554
				c25.146,3.199,48.05,14.569,73.067,18.347c4.76,0.718,9.511,1.25,14.264,1.646c5.403-5.253,35.818-21.683,39.122-23.464
				c16.493-8.89,33.845-16.122,52.031-20.772c19.883-5.083,40.883-7.927,61.886-8.684c7.481-6.991,15.868-12.572,24.959-17.09
				C599.421,136.477,594.871,135.721,590.706,135.501z"/>
		</g>
		<g>
			<g>
				<path style="fill:#352518;" d="M568.636,205.714c0,0,16.971,1.826,20.861-7.181c3.888-9.005-21.254-17.559-30.463-12.694
					C549.824,190.69,559.444,203.896,568.636,205.714z"/>
				<g style="opacity:0.5;">
					<path style="fill:#7C5740;" d="M568.636,205.714c0,0,16.971,1.826,20.861-7.181c3.888-9.005-21.254-17.559-30.463-12.694
						C549.824,190.69,559.444,203.896,568.636,205.714z M560.313,186.828c2.45-1.788,6.545-1.097,9.319-0.837
						c8.32,0.749,17.078,4.739,17.918,7.718c0.851,2.98-7.072,8.025-16.868,5.873c-2.704-0.576-5.957-2.375-8.051-4.201
						c-1.375-1.22-3.639-4.103-3.484-6.419C559.188,188.154,559.54,187.413,560.313,186.828z"/>
				</g>
				<path style="opacity:0.3;fill:#FFFFFF;" d="M579.077,190.096c-0.318,0.662,0.929,1.977,2.789,2.93
					c1.854,0.953,3.623,1.184,3.944,0.511c0.323-0.663-0.916-1.989-2.775-2.94C581.178,189.652,579.411,189.433,579.077,190.096z"/>
			</g>
		</g>
		<g>
			<g>
				<path style="fill:#352518;" d="M207.289,84.889c0,0,23.547,2.536,28.946-9.961c5.396-12.497-29.491-24.366-42.268-17.618
					C181.185,64.044,194.536,82.368,207.289,84.889z"/>
				<g style="opacity:0.5;">
					<path style="fill:#7C5740;" d="M207.289,84.889c0,0,23.547,2.536,28.946-9.961c5.396-12.497-29.491-24.366-42.268-17.618
						C181.185,64.044,194.536,82.368,207.289,84.889z M195.74,58.684c3.403-2.479,9.083-1.52,12.929-1.161
						c11.55,1.04,23.699,6.576,24.864,10.708c1.182,4.135-9.814,11.137-23.403,8.149c-3.752-0.8-8.266-3.294-11.172-5.827
						c-1.907-1.695-5.049-5.696-4.833-8.909C194.18,60.524,194.67,59.498,195.74,58.684z"/>
				</g>
				<path style="opacity:0.3;fill:#FFFFFF;" d="M221.778,63.219c-0.442,0.919,1.287,2.746,3.87,4.065
					c2.573,1.322,5.028,1.642,5.472,0.708c0.45-0.92-1.27-2.761-3.852-4.08C224.693,62.604,222.241,62.297,221.778,63.219z"/>
			</g>
		</g>
		<g>
			<g>
				<path style="fill:#352518;" d="M107.662,170.291c0,0,16.998,1.832,20.899-7.192c3.896-9.021-21.292-17.59-30.519-12.719
					C88.813,155.244,98.455,168.474,107.662,170.291z"/>
				<g style="opacity:0.5;">
					<path style="fill:#7C5740;" d="M107.662,170.291c0,0,16.998,1.832,20.899-7.192c3.896-9.021-21.292-17.59-30.519-12.719
						C88.813,155.244,98.455,168.474,107.662,170.291z M99.327,151.374c2.45-1.792,6.554-1.099,9.33-0.84
						c8.339,0.752,17.113,4.747,17.951,7.733c0.855,2.984-7.083,8.038-16.895,5.884c-2.71-0.58-5.968-2.379-8.065-4.207
						c-1.38-1.225-3.647-4.114-3.49-6.434C98.199,152.7,98.551,151.96,99.327,151.374z"/>
				</g>
				<path style="opacity:0.3;fill:#FFFFFF;" d="M118.123,154.646c-0.32,0.665,0.929,1.983,2.796,2.937
					c1.855,0.953,3.63,1.185,3.949,0.51c0.322-0.665-0.917-1.992-2.781-2.945C120.229,154.204,118.458,153.98,118.123,154.646z"/>
			</g>
		</g>
		<g>
			<g>
				<path style="fill:#7C5740;" d="M538.258,186.65c0,0-13.347,6.342-28.355-1.222c-15.017-7.555,3.495-22.586,15.911-19.731
					C538.242,168.543,543.644,180.786,538.258,186.65z"/>
				<g style="opacity:0.5;">
					<path style="fill:#7C5740;" d="M509.903,185.429c15.008,7.564,28.355,1.222,28.355,1.222
						c5.387-5.864-0.016-18.107-12.443-20.953C513.398,162.843,494.887,177.874,509.903,185.429z M518.494,167.331
						c4.664-0.635,8.611,0.136,12.469,2.393c1.773,1.037,3.935,3.027,4.823,4.72c0.343,0.653,0.558,1.363,0.614,2.132
						c0.2,2.672-1.421,4.518-4.507,4.835c-6.563,0.692-11.812,0.04-17.058-4.583C510.148,172.703,512.127,168.196,518.494,167.331z"
						/>
				</g>
				<path style="opacity:0.5;fill:#7C5740;" d="M511.183,169.763c-3.115,2.086-2.663,7.717-1.246,10.591
					c2.966,6.017,14.851,5.911,20.256,5.095c3.663-0.568,7.387-3.276,9.14-5.064c0.126,2.209-0.465,4.284-1.92,5.87
					c0,0-12.64,6.007-26.85-1.153C502.021,180.796,504.935,173.954,511.183,169.763z"/>
				<path style="opacity:0.3;fill:#FFFFFF;" d="M518.655,168.33c-0.015,0.425,0.972,0.76,2.176,0.76c1.2,0,2.191-0.328,2.201-0.75
					c0.012-0.424-0.976-0.768-2.18-0.768C519.641,167.571,518.655,167.908,518.655,168.33z"/>
			</g>
		</g>
		<g>
			<path style="fill:#7C5740;" d="M466.68,213.69c0,0,14.387,11.553,34.167,3.787c19.776-7.773,1.34-32.628-14.198-31.022
				C471.118,188.06,461.674,204.331,466.68,213.69z"/>
			<g style="opacity:0.5;">
				<path style="fill:#7C5740;" d="M486.648,186.455c-15.53,1.605-24.975,17.876-19.969,27.235c0,0,14.387,11.553,34.167,3.787
					C520.623,209.704,502.186,184.85,486.648,186.455z M497.384,203.58c-7.434-0.682-14.151,6.181-21.823,3.923
					c-3.614-1.058-5.1-3.979-4.205-7.708c0.249-1.076,0.696-2.048,1.254-2.902c1.484-2.222,4.54-4.613,6.914-5.738
					c5.166-2.44,10.055-2.776,15.471-0.97C502.393,192.652,504.839,204.265,497.384,203.58z"/>
			</g>
			<path style="opacity:0.5;fill:#7C5740;" d="M503.143,195.056c4.836,9.285-5.633,12.169-9.515,11.544
				c-4.94-0.789-9.299,4.335-17.726,4.112c-4.5-0.114-7.32-3.219-8.973-6.111c-0.692,3.113-0.489,6.17,0.859,8.688
				c0,0,13.634,10.946,32.346,3.584C511.383,212.462,509.57,202.206,503.143,195.056z"/>
			<path style="opacity:0.3;fill:#FFFFFF;" d="M494.569,191.578c-0.096,0.594-1.346,0.894-2.792,0.662
				c-1.446-0.23-2.533-0.903-2.442-1.499c0.102-0.604,1.347-0.901,2.792-0.673C493.571,190.299,494.666,190.971,494.569,191.578z"/>
		</g>
		<g>
			<path style="fill:#7C5740;" d="M527.308,210.461c0,0,5.142,4.669,13.003,3.863c7.85-0.82,1.6-9.867-4.421-10.6
				C529.856,202.989,525.693,207.208,527.308,210.461z"/>
			<g style="opacity:0.5;">
				<path style="fill:#7C5740;" d="M535.89,203.725c-6.033-0.735-10.196,3.483-8.582,6.736c0,0,5.142,4.669,13.003,3.863
					C548.16,213.504,541.91,204.457,535.89,203.725z M539.442,209.801c-2.836-0.795-5.655,0.77-8.523-0.526
					c-1.344-0.612-1.826-1.613-1.361-2.691c0.141-0.304,0.343-0.574,0.586-0.78c0.642-0.563,1.895-1.052,2.85-1.212
					c2.065-0.329,3.95-0.048,5.973,0.929C541.732,206.865,542.269,210.595,539.442,209.801z"/>
			</g>
			<path style="opacity:0.5;fill:#7C5740;" d="M541.938,207.648c1.552,3.215-2.567,3.277-4.036,2.776
				c-1.882-0.636-3.729,0.587-6.961-0.148c-1.708-0.392-2.697-1.564-3.241-2.579c-0.371,0.904-0.392,1.846,0.049,2.728
				c0,0,4.863,4.425,12.299,3.642C544.524,213.626,544.168,210.338,541.938,207.648z"/>
			<path style="opacity:0.3;fill:#FFFFFF;" d="M538.744,205.911c-0.046,0.186-0.542,0.171-1.079-0.011
				c-0.546-0.186-0.955-0.489-0.888-0.66c0.056-0.173,0.54-0.173,1.093,0.022C538.416,205.447,538.806,205.74,538.744,205.911z"/>
		</g>
		<g>
			<path style="fill:#7C5740;" d="M553.845,211.48c0,0,4.41,2.848,10.201,1.247c5.811-1.58,0.057-7.571-4.542-7.35
				C554.891,205.578,552.259,209.253,553.845,211.48z"/>
			<g style="opacity:0.5;">
				<path style="fill:#7C5740;" d="M559.504,205.377c-4.613,0.201-7.245,3.876-5.659,6.103c0,0,4.41,2.848,10.201,1.247
					C569.857,211.146,564.102,205.155,559.504,205.377z M562.877,209.476c-2.216-0.246-4.141,1.27-6.458,0.67
					c-1.081-0.291-1.548-0.982-1.312-1.828c0.043-0.246,0.166-0.468,0.319-0.669c0.424-0.49,1.29-1.023,2.006-1.27
					c1.503-0.488,2.963-0.51,4.597-0.045C564.246,206.981,565.095,209.695,562.877,209.476z"/>
			</g>
			<path style="opacity:0.5;fill:#7C5740;" d="M564.491,207.56c1.536,2.204-1.537,2.761-2.706,2.561
				c-1.47-0.221-2.734,0.916-5.222,0.78c-1.335-0.091-2.216-0.823-2.738-1.537c-0.157,0.735-0.078,1.446,0.357,2.049
				c0,0,4.162,2.672,9.649,1.182C567.13,211.678,566.485,209.274,564.491,207.56z"/>
			<path style="opacity:0.3;fill:#FFFFFF;" d="M561.898,206.646c-0.013,0.135-0.381,0.201-0.824,0.135
				c-0.421-0.09-0.749-0.243-0.724-0.378c0.022-0.135,0.376-0.202,0.825-0.135C561.586,206.334,561.93,206.514,561.898,206.646z"/>
		</g>
		<g>
			<path style="fill:#7C5740;" d="M556.296,174.823c0,0,4.365,3.288,10.458,2.098c6.095-1.183,0.546-7.828-4.215-7.974
				C557.771,168.801,554.805,172.392,556.296,174.823z"/>
			<g style="opacity:0.5;">
				<path style="fill:#7C5740;" d="M562.539,168.947c-4.768-0.146-7.734,3.444-6.243,5.876c0,0,4.365,3.288,10.458,2.098
					C572.849,175.738,567.3,169.093,562.539,168.947z M565.753,173.452c-2.278-0.421-4.363,1.004-6.71,0.193
					c-1.096-0.382-1.537-1.143-1.254-2.009c0.085-0.257,0.225-0.474,0.402-0.654c0.464-0.484,1.407-0.969,2.146-1.149
					c1.582-0.415,3.09-0.32,4.735,0.303C567.337,170.989,568.023,173.871,565.753,173.452z"/>
			</g>
			<path style="opacity:0.5;fill:#7C5740;" d="M567.55,171.589c1.445,2.406-1.77,2.747-2.958,2.46
				c-1.516-0.365-2.874,0.724-5.464,0.382c-1.366-0.184-2.223-1.033-2.713-1.79c-0.227,0.735-0.177,1.473,0.226,2.132
				c0,0,4.124,3.108,9.898,1.983C570.007,176.073,569.488,173.535,567.55,171.589z"/>
			<path style="opacity:0.3;fill:#FFFFFF;" d="M564.94,170.458c-0.031,0.136-0.421,0.171-0.859,0.066
				c-0.44-0.114-0.776-0.315-0.739-0.454c0.031-0.139,0.418-0.164,0.856-0.059C564.637,170.106,564.975,170.318,564.94,170.458z"/>
		</g>
		<g>
			<path style="fill:#7C5740;" d="M510.202,214.106c0,0,2.462,1.586,5.733,0.686c3.246-0.884,0.016-4.226-2.558-4.111
				C510.79,210.813,509.315,212.859,510.202,214.106z"/>
			<g style="opacity:0.5;">
				<path style="fill:#7C5740;" d="M513.377,210.681c-2.587,0.132-4.062,2.179-3.175,3.426c0,0,2.462,1.586,5.733,0.686
					C519.182,213.908,515.951,210.566,513.377,210.681z M515.262,212.976c-1.246-0.133-2.318,0.718-3.612,0.373
					c-0.615-0.145-0.875-0.537-0.73-1.029c0.01-0.133,0.102-0.263,0.174-0.36c0.227-0.278,0.735-0.574,1.122-0.705
					c0.852-0.294,1.662-0.312,2.564-0.034C516.032,211.582,516.506,213.105,515.262,212.976z"/>
			</g>
			<path style="opacity:0.5;fill:#7C5740;" d="M516.163,211.893c0.875,1.244-0.853,1.555-1.498,1.456
				c-0.839-0.129-1.532,0.512-2.934,0.429c-0.744-0.034-1.244-0.46-1.547-0.852c-0.082,0.393-0.024,0.803,0.206,1.129
				c0,0,2.35,1.509,5.422,0.672C517.654,214.22,517.291,212.877,516.163,211.893z"/>
			<path style="opacity:0.3;fill:#FFFFFF;" d="M514.729,211.4c-0.017,0.082-0.221,0.116-0.468,0.068
				c-0.245-0.034-0.424-0.133-0.416-0.215c0.018-0.082,0.221-0.115,0.468-0.065C514.559,211.22,514.737,211.321,514.729,211.4z"/>
		</g>
		<g>
			<g>
				<g>
					<path style="fill:#7C5740;" d="M148.808,194.23c0,0-19.507,9.246-41.446-1.796c-21.938-11.035,5.106-33.004,23.262-28.844
						C148.785,167.764,156.679,185.649,148.808,194.23z"/>
					<g style="opacity:0.5;">
						<path style="fill:#7C5740;" d="M107.362,192.435c21.939,11.042,41.446,1.796,41.446,1.796
							c7.871-8.581-0.023-26.467-18.184-30.64C112.468,159.43,85.423,181.399,107.362,192.435z M119.931,165.985
							c6.811-0.942,12.573,0.2,18.218,3.497c2.584,1.52,5.741,4.414,7.042,6.892c0.499,0.972,0.826,2.001,0.903,3.134
							c0.288,3.893-2.078,6.582-6.589,7.055c-9.587,1.01-17.262,0.057-24.947-6.709C107.72,173.837,110.619,167.253,119.931,165.985
							z"/>
					</g>
					<path style="opacity:0.5;fill:#7C5740;" d="M109.234,169.532c-4.541,3.045-3.892,11.291-1.827,15.482
						c4.33,8.803,21.703,8.639,29.604,7.429c5.368-0.817,10.796-4.759,13.374-7.391c0.167,3.24-0.691,6.285-2.82,8.601
						c0,0-18.473,8.757-39.232-1.709C95.848,185.669,100.117,175.654,109.234,169.532z"/>
					<path style="opacity:0.3;fill:#FFFFFF;" d="M120.151,167.447c-0.008,0.622,1.425,1.122,3.182,1.122
						c1.769,0,3.209-0.489,3.215-1.114c0.01-0.614-1.412-1.113-3.177-1.125C121.599,166.33,120.161,166.83,120.151,167.447z"/>
				</g>
			</g>
			<g>
				<path style="fill:#7C5740;" d="M157.847,201.729c0,0,2.778,1.787,6.441,0.787c3.645-0.999,0.017-4.776-2.885-4.641
					C158.51,197.999,156.842,200.314,157.847,201.729z"/>
				<g style="opacity:0.5;">
					<path style="fill:#7C5740;" d="M161.402,197.875c-2.893,0.124-4.561,2.439-3.556,3.854c0,0,2.778,1.787,6.441,0.787
						C167.932,201.517,164.305,197.739,161.402,197.875z M163.537,200.459c-1.4-0.164-2.615,0.809-4.072,0.423
						c-0.677-0.183-0.984-0.614-0.839-1.152c0.037-0.152,0.114-0.3,0.22-0.423c0.254-0.309,0.817-0.645,1.252-0.789
						c0.953-0.326,1.872-0.338,2.9-0.038C164.408,198.893,164.935,200.613,163.537,200.459z"/>
				</g>
				<path style="opacity:0.5;fill:#7C5740;" d="M164.553,199.239c0.982,1.403-0.97,1.748-1.699,1.635
					c-0.936-0.155-1.716,0.566-3.295,0.479c-0.843-0.048-1.405-0.517-1.726-0.952c-0.112,0.454-0.054,0.895,0.209,1.28
					c0,0,2.641,1.69,6.104,0.74C166.223,201.852,165.82,200.334,164.553,199.239z"/>
				<path style="opacity:0.3;fill:#FFFFFF;" d="M162.931,198.681c-0.014,0.088-0.255,0.116-0.523,0.069
					c-0.27-0.041-0.482-0.145-0.466-0.232c0.01-0.086,0.25-0.124,0.507-0.077C162.73,198.48,162.942,198.584,162.931,198.681z"/>
			</g>
			<g>
				<path style="fill:#7C5740;" d="M65.78,192.675c0,0,2.784,1.787,6.445,0.778c3.65-0.998,0.022-4.768-2.884-4.643
					C66.439,188.946,64.78,191.273,65.78,192.675z"/>
				<g style="opacity:0.5;">
					<path style="fill:#7C5740;" d="M69.341,188.811c-2.902,0.136-4.562,2.462-3.561,3.864c0,0,2.784,1.787,6.445,0.778
						C75.876,192.455,72.248,188.686,69.341,188.811z M71.472,191.405c-1.401-0.163-2.614,0.808-4.07,0.413
						c-0.683-0.172-0.979-0.605-0.834-1.152c0.034-0.153,0.11-0.289,0.212-0.414c0.266-0.316,0.82-0.643,1.252-0.797
						c0.952-0.328,1.874-0.337,2.901-0.038C72.348,189.829,72.876,191.55,71.472,191.405z"/>
				</g>
				<path style="opacity:0.5;fill:#7C5740;" d="M72.493,190.186c0.97,1.393-0.968,1.749-1.701,1.624
					c-0.939-0.144-1.711,0.577-3.302,0.489c-0.841-0.048-1.393-0.528-1.722-0.961c-0.111,0.452-0.054,0.904,0.216,1.289
					c0,0,2.638,1.691,6.099,0.741C74.158,192.791,73.751,191.281,72.493,190.186z"/>
				<path style="opacity:0.3;fill:#FFFFFF;" d="M70.861,189.619c-0.012,0.086-0.241,0.124-0.522,0.076
					c-0.269-0.04-0.476-0.152-0.458-0.23c0.014-0.095,0.238-0.124,0.515-0.078C70.67,189.427,70.882,189.531,70.861,189.619z"/>
			</g>
		</g>
		<g>
			<g>
				<path style="fill:#7C5740;" d="M494.538,78.413c0,0,14.392,11.544,34.167,3.768c19.779-7.766,1.339-32.62-14.191-31.015
					C498.983,52.781,489.545,69.043,494.538,78.413z"/>
				<g style="opacity:0.5;">
					<path style="fill:#7C5740;" d="M514.514,51.166c-15.53,1.615-24.969,17.877-19.976,27.247c0,0,14.392,11.544,34.167,3.768
						C548.484,74.415,530.044,49.561,514.514,51.166z M525.255,68.293c-7.45-0.691-14.161,6.189-21.836,3.931
						c-3.604-1.067-5.096-3.978-4.204-7.717c0.243-1.077,0.68-2.047,1.258-2.893c1.48-2.229,4.543-4.623,6.91-5.748
						c5.172-2.451,10.064-2.768,15.478-0.96C530.256,57.374,532.699,68.975,525.255,68.293z"/>
				</g>
				<path style="opacity:0.5;fill:#7C5740;" d="M531.011,59.768c4.829,9.275-5.638,12.177-9.514,11.551
					c-4.95-0.796-9.317,4.325-17.741,4.104c-4.49-0.125-7.311-3.218-8.969-6.111c-0.691,3.104-0.487,6.181,0.857,8.698
					c0,0,13.634,10.938,32.359,3.585C539.241,77.172,537.427,66.919,531.011,59.768z"/>
				<path style="opacity:0.3;fill:#FFFFFF;" d="M522.423,56.298c-0.09,0.598-1.334,0.884-2.777,0.654
					c-1.449-0.23-2.541-0.902-2.441-1.499c0.092-0.605,1.341-0.893,2.787-0.663C521.435,55.02,522.521,55.693,522.423,56.298z"/>
			</g>
			<g>
				<path style="fill:#7C5740;" d="M557.623,103.324c0,0,1.895,1.221,4.399,0.539c2.501-0.69,0.022-3.268-1.966-3.18
					C558.065,100.778,556.932,102.364,557.623,103.324z"/>
				<g style="opacity:0.5;">
					<path style="fill:#7C5740;" d="M560.057,100.682c-1.991,0.096-3.125,1.682-2.434,2.642c0,0,1.895,1.221,4.399,0.539
						C564.523,103.172,562.045,100.595,560.057,100.682z M561.518,102.451c-0.961-0.098-1.793,0.556-2.794,0.286
						c-0.456-0.114-0.663-0.411-0.57-0.786c0.024-0.107,0.078-0.202,0.15-0.29c0.175-0.21,0.554-0.431,0.862-0.537
						c0.648-0.221,1.279-0.23,1.981-0.029C562.102,101.374,562.474,102.545,561.518,102.451z"/>
				</g>
				<path style="opacity:0.5;fill:#7C5740;" d="M562.214,101.623c0.658,0.953-0.669,1.192-1.169,1.114
					c-0.64-0.104-1.173,0.386-2.258,0.328c-0.577-0.04-0.947-0.355-1.182-0.653c-0.072,0.308-0.04,0.613,0.148,0.874
					c0,0,1.811,1.162,4.171,0.51C563.352,103.4,563.067,102.373,562.214,101.623z"/>
				<path style="opacity:0.3;fill:#FFFFFF;" d="M561.099,101.23c-0.013,0.066-0.172,0.085-0.359,0.057
					c-0.187-0.029-0.329-0.096-0.316-0.163c0.008-0.058,0.162-0.077,0.352-0.058C560.96,101.104,561.108,101.181,561.099,101.23z"/>
			</g>
			<g>
				<path style="fill:#7C5740;" d="M584.67,68.898c0,0,2.119,1.374,4.899,0.605c2.794-0.759,0.031-3.642-2.185-3.536
					C585.169,66.073,583.915,67.841,584.67,68.898z"/>
				<g style="opacity:0.5;">
					<path style="fill:#7C5740;" d="M587.384,65.967c-2.215,0.106-3.469,1.874-2.714,2.931c0,0,2.119,1.374,4.899,0.605
						C592.363,68.744,589.601,65.861,587.384,65.967z M589.007,67.937c-1.063-0.115-1.99,0.615-3.098,0.328
						c-0.524-0.136-0.749-0.471-0.645-0.875c0.035-0.125,0.094-0.231,0.163-0.328c0.205-0.239,0.624-0.49,0.962-0.613
						c0.728-0.231,1.423-0.251,2.201-0.011C589.666,66.736,590.074,68.044,589.007,67.937z"/>
				</g>
				<path style="opacity:0.5;fill:#7C5740;" d="M589.787,67.014c0.735,1.067-0.743,1.328-1.298,1.24
					c-0.715-0.114-1.311,0.442-2.518,0.366c-0.641-0.028-1.061-0.395-1.311-0.731c-0.087,0.346-0.039,0.692,0.162,0.981
					c0,0,2.015,1.287,4.648,0.568C591.051,69.004,590.738,67.852,589.787,67.014z"/>
				<path style="opacity:0.3;fill:#FFFFFF;" d="M588.543,66.581c-0.01,0.068-0.187,0.098-0.399,0.068
					c-0.201-0.039-0.367-0.134-0.356-0.191c0.015-0.058,0.193-0.087,0.397-0.049C588.394,66.437,588.552,66.515,588.543,66.581z"/>
			</g>
			<g>
				<g>
					<path style="fill:#352518;" d="M526.604,81.296c0,0,16.168,12.187,39.041,9.14c22.87-3.046,2.445-27.055-15.391-28.429
						C532.413,60.642,521.137,72.599,526.604,81.296z"/>
					<g style="opacity:0.3;">
						<path style="fill:#352518;" d="M550.254,62.007c-17.841-1.366-29.117,10.592-23.65,19.289c0,0,16.168,12.187,39.041,9.14
							C588.515,87.39,568.09,63.381,550.254,62.007z M562.078,78.202c-8.514-1.874-16.398,2.709-25.135-0.529
							c-4.09-1.509-5.719-4.209-4.595-7.18c0.32-0.864,0.854-1.585,1.523-2.201c1.75-1.613,5.328-3.076,8.075-3.604
							c5.98-1.145,11.602-0.568,17.754,1.892C568.115,69.945,570.584,80.076,562.078,78.202z"/>
					</g>
					<path style="opacity:0.5;fill:#352518;" d="M568.906,72.08c5.279,8.61-6.805,9.197-11.221,7.996
						c-5.646-1.519-10.788,2.008-20.443,0.346c-5.136-0.875-8.284-3.989-10.105-6.68c-0.873,2.48-0.729,5.085,0.75,7.429
						c0,0,15.308,11.523,36.965,8.64C577.854,88.072,576.063,79.191,568.906,72.08z"/>
					<path style="opacity:0.3;fill:#FFFFFF;" d="M559.166,67.668c-0.113,0.489-1.553,0.519-3.204,0.078
						c-1.649-0.453-2.882-1.203-2.755-1.693c0.126-0.48,1.57-0.51,3.212-0.067C558.065,66.437,559.302,67.178,559.166,67.668z"/>
				</g>
			</g>
			<g>
				<path style="fill:#7C5740;" d="M518.021,82.652c0,0,4.042,3.662,10.229,3.037c6.175-0.644,1.249-7.756-3.478-8.334
					C520.041,76.779,516.759,80.086,518.021,82.652z"/>
				<g style="opacity:0.5;">
					<path style="fill:#7C5740;" d="M524.771,77.355c-4.73-0.576-8.013,2.73-6.751,5.296c0,0,4.042,3.662,10.229,3.037
						C534.424,85.045,529.498,77.933,524.771,77.355z M527.571,82.133c-2.24-0.625-4.441,0.604-6.705-0.414
						c-1.056-0.479-1.433-1.27-1.065-2.114c0.101-0.241,0.265-0.442,0.452-0.615c0.505-0.452,1.489-0.827,2.238-0.952
						c1.621-0.269,3.115-0.039,4.698,0.731C529.364,79.816,529.795,82.767,527.571,82.133z"/>
				</g>
				<path style="opacity:0.5;fill:#7C5740;" d="M529.526,80.449c1.218,2.519-2.026,2.567-3.176,2.173
					c-1.471-0.5-2.923,0.471-5.466-0.115c-1.349-0.298-2.123-1.23-2.547-2.018c-0.29,0.702-0.305,1.45,0.025,2.133
					c0,0,3.835,3.47,9.693,2.875C531.56,85.13,531.277,82.555,529.526,80.449z"/>
				<path style="opacity:0.3;fill:#FFFFFF;" d="M527.027,79.077c-0.05,0.134-0.429,0.125-0.865-0.021
					c-0.421-0.144-0.735-0.375-0.695-0.5c0.048-0.145,0.433-0.135,0.861,0.01C526.762,78.71,527.067,78.932,527.027,79.077z"/>
			</g>
			<g>
				<path style="fill:#7C5740;" d="M498.884,83.666c0,0,3.642,3.297,9.21,2.731c5.554-0.564,1.114-6.986-3.138-7.49
					C500.706,78.376,497.755,81.358,498.884,83.666z"/>
				<g style="opacity:0.5;">
					<path style="fill:#7C5740;" d="M504.956,78.908c-4.25-0.532-7.201,2.45-6.072,4.758c0,0,3.642,3.297,9.21,2.731
						C513.647,85.834,509.208,79.412,504.956,78.908z M507.473,83.211c-2.008-0.564-3.993,0.534-6.021-0.377
						c-0.955-0.438-1.293-1.146-0.955-1.9c0.084-0.22,0.234-0.409,0.396-0.565c0.466-0.392,1.336-0.737,2.015-0.849
						c1.476-0.235,2.808-0.031,4.232,0.66C509.085,81.123,509.483,83.761,507.473,83.211z"/>
				</g>
				<path style="opacity:0.5;fill:#7C5740;" d="M509.249,81.688c1.083,2.277-1.829,2.324-2.864,1.963
					c-1.321-0.456-2.641,0.393-4.915-0.108c-1.226-0.284-1.908-1.101-2.294-1.824c-0.259,0.629-0.273,1.303,0.033,1.932
					c0,0,3.436,3.124,8.708,2.575C511.063,85.912,510.818,83.588,509.249,81.688z"/>
				<path style="opacity:0.3;fill:#FFFFFF;" d="M506.988,80.448c-0.039,0.125-0.395,0.125-0.775-0.016
					c-0.387-0.126-0.662-0.329-0.622-0.455c0.031-0.126,0.384-0.112,0.769,0.016C506.742,80.118,507.034,80.322,506.988,80.448z"/>
			</g>
			<g>
				<path style="fill:#7C5740;" d="M551.185,90.718c0,0,4.21,3.815,10.632,3.161c6.421-0.672,1.31-8.083-3.614-8.665
					C553.292,84.596,549.875,88.048,551.185,90.718z"/>
				<g style="opacity:0.5;">
					<path style="fill:#7C5740;" d="M558.203,85.214c-4.911-0.618-8.328,2.834-7.018,5.504c0,0,4.21,3.815,10.632,3.161
						C568.238,93.207,563.128,85.795,558.203,85.214z M561.108,90.172c-2.308-0.636-4.604,0.635-6.956-0.417
						c-1.107-0.51-1.499-1.327-1.129-2.198c0.13-0.254,0.275-0.472,0.486-0.653c0.535-0.455,1.551-0.872,2.325-0.981
						c1.696-0.273,3.24-0.055,4.885,0.763C562.979,87.775,563.435,90.828,561.108,90.172z"/>
				</g>
				<path style="opacity:0.5;fill:#7C5740;" d="M563.152,88.429c1.271,2.614-2.107,2.672-3.306,2.269
					c-1.535-0.526-3.05,0.474-5.683-0.125c-1.411-0.327-2.201-1.291-2.653-2.108c-0.31,0.728-0.325,1.508,0.035,2.217
					c0,0,3.983,3.615,10.072,2.996C565.277,93.296,564.997,90.627,563.152,88.429z"/>
				<path style="opacity:0.3;fill:#FFFFFF;" d="M560.557,86.993c-0.057,0.146-0.458,0.146-0.892-0.017
					c-0.466-0.146-0.783-0.399-0.734-0.527c0.054-0.145,0.451-0.145,0.888,0.02C560.266,86.612,560.612,86.849,560.557,86.993z"/>
			</g>
			<g>
				<path style="fill:#7C5740;" d="M591.117,105.246c0,0,2.229,2.019,5.634,1.663c3.404-0.346,0.689-4.267-1.917-4.583
					C592.227,102.008,590.426,103.824,591.117,105.246z"/>
				<g style="opacity:0.5;">
					<path style="fill:#7C5740;" d="M594.834,102.326c-2.607-0.317-4.408,1.499-3.717,2.92c0,0,2.229,2.019,5.634,1.663
						C600.155,106.563,597.44,102.642,594.834,102.326z M596.376,104.958c-1.232-0.345-2.445,0.327-3.686-0.23
						c-0.589-0.268-0.793-0.701-0.589-1.163c0.059-0.135,0.146-0.25,0.247-0.337c0.278-0.25,0.82-0.461,1.235-0.527
						c0.897-0.146,1.715-0.021,2.59,0.402C597.36,103.69,597.61,105.304,596.376,104.958z"/>
				</g>
				<path style="opacity:0.5;fill:#7C5740;" d="M597.462,104.026c0.663,1.393-1.121,1.414-1.759,1.202
					c-0.802-0.27-1.605,0.249-3.008-0.067c-0.744-0.173-1.164-0.673-1.398-1.105c-0.161,0.375-0.18,0.788,0.018,1.173
					c0,0,2.104,1.912,5.335,1.576C598.571,106.611,598.423,105.188,597.462,104.026z"/>
				<path style="opacity:0.3;fill:#FFFFFF;" d="M596.082,103.267c-0.029,0.087-0.243,0.076-0.477-0.01
					c-0.234-0.077-0.407-0.202-0.379-0.279c0.018-0.077,0.225-0.067,0.467,0.011C595.934,103.074,596.102,103.199,596.082,103.267z"
					/>
			</g>
		</g>
	</g>
</g>
</svg>
